# xmcd
#
# Track frame offsets:
#       182
#       12055
#       25187
#       39077
#       53672
#       65465
#       79660
#       92325
#       101092
#       111885
#
# Disc length: 1624 seconds
#
# Revision: 4
# Processed by: cddbd v1.5.2PL0 Copyright (c) Steve Scherf et al.
# Submitted via: FreeDbEdit v0.1
#
DISCID=6806560a
DTITLE=Tennesse Ernie Ford - Greatest Hits
DYEAR=1993
DGENRE=Country
TTITLE0=Sixteen Tons
TTITLE1=Ballad of Davey Crockett
TTITLE2=Mule Train
TTITLE3=The Cry of the Wild Goose
TTITLE4=Shot Gun Boogie
TTITLE5=Mister and Mississippi
TTITLE6=That's All
TTITLE7=The Honeymoon's Over
TTITLE8=In the Middle of an Island
TTITLE9=The Roving Gambler
EXTD=YEAR: 1993
EXTT0=
EXTT1=
EXTT2=
EXTT3=
EXTT4=
EXTT5=
EXTT6=
EXTT7=
EXTT8=
EXTT9=
PLAYORDER=
